<svg version="1" xmlns="http://www.w3.org/2000/svg" width="1237.333" height="1237.333" viewBox="0 0 928.000000 928.000000"><path d="M36.9 64.4c-.2.2-2 .6-3.9.9-12.9 2-24.7 10.1-29.1 20-2.5 5.7-3.3 17.1-1.7 23.5.5 2 1.1 4.8 1.4 6.1.3 1.3 1 3.4 1.6 4.5.6 1.2 1.1 2.3 1.1 2.6-.2 1.4 11.3 25.2 13.7 28.5.4.5 2.5 4.4 4.7 8.5s5 9.3 6.3 11.5c1.3 2.2 3.4 6 4.8 8.5s4.3 7.6 6.6 11.5c2.2 3.8 4.1 7.2 4.1 7.5.1.3 1.1 2.1 2.3 4 1.2 1.9 2.2 4.1 2.2 4.7 0 .7.5 1.3 1 1.3.6 0 1 .4 1 .9 0 .8 14.4 26.5 18 32.1.5.8 1.9 3.4 3.1 5.7 1.3 2.4 2.6 4.3 3.1 4.3.4 0 .8.9.8 1.9 0 1.1.4 2.2.9 2.6.5.3 2.2 3 3.7 6 1.6 3 3.2 5.5 3.6 5.5.4 0 .8.4.8.9 0 .9 8.9 16.9 12.8 23.1.9 1.4 1.4 2.5 1.2 2.5-.2 0 1.9 3.4 4.5 7.5s4.7 7.5 4.5 7.5c-.2 0 .3 1.1 1.2 2.5 5.2 8.4 11.8 19.9 11.8 20.6 0 .4.6 1.5 1.4 2.3.7.9 2.5 3.6 3.8 6.1 1.4 2.5 4.8 8.4 7.7 13.2 2.8 4.8 5.1 8.9 5.1 9.2 0 .3 1.3 2.5 3 4.9 1.7 2.5 3 5 3 5.6 0 .6.5 1.1 1 1.1.6 0 1 .6 1 1.3 0 .7 1.1 2.8 2.3 4.7 1.3 1.9 3.5 5.5 4.9 8 4.9 8.8 6.7 11.9 9.1 15.7 1.3 2.1 3.5 5.8 4.9 8.3 4.6 8.3 6.5 11.5 9.6 16.5 5.6 9.3 8.3 14 8.9 15.7.3 1 .9 1.8 1.4 1.8.5 0 .9.4.9.9s2.7 5.5 6 11.1 6 10.6 6 11.1.4.9.9.9 1.1.8 1.5 1.7c.3 1 1 2.5 1.6 3.3 1.5 2.3 16 27.2 16 27.5 0 .8 6.6 11 7.3 11.3.4.2.7 1 .7 1.7 0 .8.7 2.1 1.6 2.9.8.9 1.2 1.6.7 1.6-.4 0-.3.4.2.8 1 .7 3.2 4.5 7.7 12.9 1.2 2.4 2.6 4.3 3 4.3.4 0 .8.4.8 1 0 .8 2 4.4 7.5 13.5.7 1.1 1.2 2.4 1.3 2.9 0 .5.4 1.2 1 1.5.9.6 5.3 8 7.6 12.8.6 1.3 1.4 2.3 1.9 2.3.4 0 .7.6.7 1.2 0 1.7 4.9 7.7 5 6.1 0-1.5 22.1-38.6 23.2-39.1.5-.2.8-1.2.8-2.2 0-1.1.6-2.3 1.3-2.7.6-.4 1.8-1.9 2.5-3.2.8-1.3 2.2-3.8 3.1-5.5 1-1.7 6.6-11.1 12.5-20.9 5.8-9.9 10.6-18.3 10.6-18.7 0-.5.4-1 .8-1.2.4-.2 4.1-5.9 8.1-12.8 4.1-6.9 8.1-13.7 9-15.2.9-1.5 4.7-8 8.6-14.5 3.8-6.5 7.3-12 7.7-12.1.4-.2.8-.8.8-1.4 0-.5 2.5-5 5.5-10 3-4.9 5.5-9.1 5.5-9.4 0-.3 4.8-8.3 7.8-12.9.7-1.1 1.5-2.8 1.8-3.8.4-.9 1-1.7 1.5-1.7s.9-.5.9-1c0-.6 1.5-3.4 3.3-6.3 1.8-2.9 3.6-5.9 4-6.7.4-.8 1.5-2.9 2.6-4.5 5.4-8.9 23.1-38.7 23.1-39 0-.2 1.8-3.2 4-6.6 2.2-3.5 4.3-7.1 4.7-7.9.3-.8 2.4-4.2 4.5-7.6 2.1-3.4 3.8-6.6 3.8-7.3 0-.6.3-1.1.8-1.1.4 0 1.6-1.8 2.6-4 1.1-2.2 2.2-4 2.5-4 .3 0 1.3-1.5 2-3.3.8-1.7 3.2-5.9 5.3-9.2 2.1-3.3 3.8-6.5 3.8-7.2 0-.6.4-1.3.8-1.5.7-.2 5.2-7.6 17.2-28.3.9-1.7 3.6-6 5.8-9.8 2.3-3.7 4.2-7.2 4.2-7.7 0-.6.5-1 1-1 .6 0 1-.4 1-.9 0-1.3 11.2-20.4 12.5-21.3.5-.4.6-.8.1-.8s-.2-.8.6-1.8c.9-.9 2.8-4 4.3-6.7 1.4-2.8 3.4-6.2 4.3-7.7 1.7-2.7 9.9-16.6 13.4-22.8 1.1-1.9 2.6-4.2 3.4-5.1.8-.8 1.4-1.9 1.4-2.2 0-1 21-36.9 22.8-39 .8-.9 1.2-1.7.8-1.7-.4 0 .4-1.5 1.7-3.3 1.4-1.7 2.8-4.2 3.2-5.5l.7-2.3-88.9.4c-48.8.2-90.4.7-92.3 1-1.9.4-5.7.9-8.5 1.2-8.2.8-20.2 4.2-26.6 7.6-3.2 1.8-5.9 3.6-5.9 4 0 .5-.6.9-1.4.9-5.2 0-22.5 27.7-33.6 53.5-1.1 2.7-2.5 5.9-3 7-1.5 3.3-4.3 10-4.4 10.5-.1.3-1 2.7-2 5.5-1.8 5-2.4 6.9-2.7 8.3 0 .4-.5 1.5-1.1 2.5-.5 1-1.1 2.6-1.3 3.5-.3.9-1.5 4.6-2.8 8.2-2.5 7.1-2.7 7.6-2.7 8.8 0 .5-5.7.7-12.7.5-17.4-.6-17.8-.7-17.6-1.8.1-.6.4-4.4.7-8.5.6-7.4 1.2-14.3 2.1-23 .3-2.5.7-7.9 1-12 .3-4.1.7-9.1 1-11 .2-1.9.7-6.7 1.1-10.5.3-3.9.8-8.8 1-11 .1-2.2.5-6.7.8-10 .3-3.3.8-8.5 1.1-11.5.3-3 .8-8.2 1.1-11.5.2-3.3.7-8.3 1-11 .3-2.8.7-7.7.9-11 .3-3.3.7-8.3 1-11.2.3-2.8.8-8.8 1-13.2l.5-8.1-31.8-.1c-17.4 0-66.4-.2-108.8-.4-42.5-.2-77.3-.2-77.5-.1zM691.5 68.2c-.7.4-4.1 5.6-7.6 11.5-3.5 6-6.6 11-6.9 11.3-.4.3-.9 1.2-1.2 2-.6 1.5-20.1 34.7-21.5 36.5-.4.6-1.9 3-3.2 5.5-1.4 2.5-5.6 9.6-9.3 15.9-3.7 6.2-6.8 11.8-6.8 12.2 0 .5-.4.9-1 .9-.5 0-1 .4-1 1 0 .5-1.4 3.3-3.2 6.2-1.7 2.9-4.6 7.8-6.3 10.8-1.8 3-6.2 10.7-10 17-3.7 6.3-7.6 12.8-8.5 14.5-1 1.6-3.8 6.5-6.4 10.8-2.5 4.3-4.6 8.2-4.6 8.7 0 .6-.4 1-1 1-.5 0-1 .4-1 1 0 .5-2.4 4.9-5.3 9.8-3 4.9-5.7 9.5-6 10.3-.4.8-1.5 2.7-2.6 4.4-1 1.6-5.4 9.3-9.9 17-4.5 7.7-8.6 14.5-9.2 15.2-.5.7-1 1.4-1 1.7 0 .3-2.4 4.5-5.2 9.3-2.9 4.8-5.6 9.5-6.1 10.3-.4.8-1.7 3.2-3 5.2-1.2 2.1-4.2 7.2-6.6 11.5-2.4 4.3-4.9 8.5-5.6 9.3-.8.8-1.5 2.2-1.7 3-.2.8-.6 1.7-.9 2-.3.3-1.7 2.4-3 4.7-4.8 8.3-19.1 32.8-20 34.3-2.1 3.5-12.6 21.6-13.2 23-.4.8-1.6 2.8-2.7 4.5-1.1 1.6-2.8 4.6-3.8 6.5-4.6 8.5-7.7 13.5-8.4 13.8-.4.2-.8.7-.8 1.2s-3.9 7.5-8.6 15.7c-4.8 8.1-10 17.3-11.7 20.3-1.6 3-3.8 6.6-4.7 8-.9 1.4-3.7 6-6.1 10.3-2.4 4.3-4.9 8.6-5.4 9.5-.6 1-3.7 6.4-6.9 12.2-3.3 5.8-6.3 10.6-6.8 10.8-.4.2-.8.8-.8 1.3s-4.2 8.2-9.4 17.2c-5.1 8.9-10.6 18.5-12.1 21.2-1.5 2.8-3.1 5.4-3.5 6-1.5 1.9-7.1 12-7.7 13.7-.3 1-.9 1.8-1.4 1.8-.5 0-.9.4-.9.9 0 .6-4.7 9.2-10.5 19.1-5.8 10-10.5 18.6-10.5 19.1s-.4.9-1 .9c-.5 0-1 .4-1 .9 0 1.2-9.3 17.5-10.2 17.9-.4.2-.8.8-.8 1.4 0 .6-1.3 3.2-2.9 5.9-3.2 5-2.9 5.7 2.2 5.5 1.5-.1 2.7.1 2.7.4 0 .3 3.5.6 7.8.7 4.2.1 15.8.4 25.7.7 26.8.8 83.8.9 93 .1 13.5-1.2 24.9-2.7 25.8-3.5.1-.1 1.3-.3 2.7-.5 7.8-.9 20.2-3.6 24-5.2.8-.3 1.8-.5 2.2-.5 1.2.3 26.7-8.4 32.3-10.9 2.8-1.3 5.2-2.4 5.5-2.4 1.5-.3 16.3-8.1 17.8-9.4 1-.9 4.7-4 8.2-7 10.4-8.6 33.7-32.7 44.2-45.5 1.2-1.5 3-3.6 3.8-4.5.8-.9 4-4.8 7-8.6 6.6-8.4 8.2-10.4 9.5-11.9 4-4.5 8.5-10.6 8.5-11.4 0-.6.4-1.2.9-1.4.7-.3 11.5-14 16.6-21.3 1.1-1.5 2.7-3.6 3.5-4.5 2-2.3 2.4-2.8 15.1-25 6.2-10.7 11.7-19.8 12.2-20.1.5-.3.7-.8.6-1-.2-.2 1.4-3.3 3.5-6.8 2-3.5 5.6-9.8 7.8-14 2.3-4.2 4.5-7.8 4.9-8.1.3-.3.9-1.5 1.3-2.8.4-1.2 1.2-2.2 1.7-2.2s.9-.5.9-1c0-.9 11.5-21.3 17.1-30.5 1.1-1.7 2.2-3.7 2.6-4.5.4-.8 5.9-10.6 12.3-21.6 6.4-11.1 12-20.8 12.4-21.5.4-.8 1.2-2.3 1.9-3.4s4.2-7.1 7.7-13.3c3.6-6.2 7.3-12.8 8.3-14.5 1.1-1.8 2.9-5 4-7.2 1.2-2.2 2.4-4.2 2.7-4.5.5-.5 1.6-2.4 5.7-9.9 1.4-2.5 2.9-5.1 3.3-5.6.5-.6 1.9-3 3.2-5.5 1.4-2.5 3.4-6.1 4.5-8 1.1-1.9 10-17.5 19.8-34.5 9.8-17.1 18.9-32.7 20.2-34.7 1.2-2.1 2.3-4 2.3-4.3 0-.3 1.1-2.2 2.3-4.3 1.3-2 3.5-5.7 4.9-8.2 1.4-2.5 3.4-6.1 4.5-8 1.1-1.9 4.6-8 7.8-13.5 3.1-5.5 6.6-11.5 7.6-13.3 1.1-1.7 2.7-4.7 3.8-6.5 1-1.7 5-8.7 8.9-15.5 3.9-6.8 7.4-13.7 7.7-15.3.4-1.6 1.1-2.9 1.7-2.9.6 0 .9-.3.5-.6-.3-.3-.1-1.8.5-3.3 2.2-5.7 2.9-15.4 1.6-21.6-.7-3-2.4-6.1-5.5-9.5-2.5-2.7-4.9-5-5.3-5-.5 0-2.1-.5-3.7-1.2-4.1-1.6-4.4-1.7-9.4-2.6-2.6-.5-5.4-.7-6.3-.6-.9.1-1.6-.1-1.6-.4 0-1-200.8-.9-202.5 0zM339.1 699.2c.7 1.2 4.3 7.4 8.2 13.8 3.8 6.3 7 12.1 7 12.7 0 .7.4 1.3.9 1.3.4 0 1.4 1.5 2.3 3.2 1.5 3.4 1.9 4.1 6.8 11.5 1.5 2.3 2.7 4.4 2.7 4.7 0 .4 14.2 24.7 18 30.6 2.9 4.7 6 10.4 6 11.1 0 .5.5.9 1 .9.6 0 1 .7 1 1.5s.5 1.5 1 1.5c.6 0 1 .5 1 1.1 0 .7 2.7 5.6 6 10.9 3.3 5.3 6 10.2 6 10.9 0 .6.5 1.1 1 1.1.6 0 1 .4 1 .9 0 1.2 5.7 10.6 10.5 17.1 3.5 5 15 17 16.1 17 .3 0 1.4.9 2.5 1.9 3.2 2.9 13.5 8.2 19 9.6 5.8 1.5 16.2 1.3 20.4-.5 1.7-.7 3.5-1.4 4.2-1.6 5-1 24.3-19.4 24.3-23.2 0-.6.4-1.2.9-1.4.7-.2 10.1-15.9 20.3-33.8 2-3.4 11.5-19.5 15.1-25.5 1-1.7 2.3-4.2 3-5.8.6-1.5 1.5-2.7 1.9-2.7.4 0 .8-.5.8-1 0-.6 1.6-3.6 3.5-6.6 1.9-3 3.5-5.8 3.5-6.3 0-.4.8-1.9 1.8-3.2 1.1-1.3 3.2-4.9 4.9-7.9 4.6-8.4 7-12.5 9.7-16.9 1.5-2.2 2.6-4.2 2.6-4.5 0-.2 1.8-3.4 4-7s4-7 4-7.5.3-1.1.8-1.3c.4-.2 1.7-2.2 3-4.6l2.3-4.2H337.9l1.2 2.2z"/></svg>